# xmcd
#
# Track frame offsets:
#	150
#	18949
#	28558
#	43775
#	55960
#	68103
#	70217
#	83212
#	103155
#	114556
#	128048
#	137969
#	149058
#	162946
#	175007
#	187015
#	190203
#	205241
#	207599
#	222164
#	224606
#	243427
#	256727
#	269860
#	281945
#	296134
#	309895
#	321955
#	334413
#	343441
#
# Disc length: 4775 seconds
#
# Revision: 4
# Processed by: cddbd v1.5.2PL0 Copyright (c) Steve Scherf et al.
# Submitted via: EZCDAudioConverter 1.3.4.1
#
DISCID=f912a51e
DTITLE=V/A - Next Stop Is Vietnam 3/13
DYEAR=2010
DGENRE=
TTITLE0=Arthur Weston - Uncle Sam Called Me (I Got To Go)
TTITLE1=Shorty Long and The Santa Fe Rangers - Greetings (Uncle Sam Wants You)
TTITLE2=Richie Kaye - Here Comes Uncle Sam
TTITLE3=J.B. Lenoir - Vietnam
TTITLE4=Bob King and The King's Court - The Ballad Of Our Times
TTITLE5=President Johnson warns that ''there will be some nervous nellies..
TTITLE5='' (1966)
TTITLE6=The Combinations - Hey! Uncle Sam
TTITLE7=John Lee Hooker - I Gotta Go To Vietnam
TTITLE8=Jimmy Hughes - Uncle Sam
TTITLE9=The Prophets - Fightin' For Sam
TTITLE10=Phil Ochs - The Draft Dodger Rag
TTITLE11=Midnight Sons - Draft Time Blues
TTITLE12=The Monitors - Greetings (This Is Uncle Sam)
TTITLE13=Keith Everett - Conscientious Objector
TTITLE14=Flying Burrito Brothers - My Uncle
TTITLE15=David McReynolds explains why he burned his draft card (November 6
TTITLE15=, 1965)
TTITLE16=Steppenwolf - Draft Resister
TTITLE17=The first draft lottery birth date - September 14 - is announced (
TTITLE17=December 1, 1969)
TTITLE18=Verlin 'Red' Speeks - The Red White and Blue
TTITLE19=PSA to parents from Bing Crosby
TTITLE20=Victor Lundberg - An Open Letter To My Teenage Son
TTITLE21=Every Father's Teenage Son - A Letter To Dad
TTITLE22=Brandon Wade - Letter From A Teenage Son
TTITLE23=Dewey Jones - Please Mr. Johnson
TTITLE24=Becky Lamb - Little Becky's Christmas Wish
TTITLE25=The Fawns - Wish You Were Here With Me
TTITLE26=Lois and Karen - Army Bound
TTITLE27=Nancy Nally and Jubilee Wranglers - I Will Wait
TTITLE28=Ginger and Jean - What's Been Going On In Viet Nam
TTITLE29=The Dells - Does Anybody Know I'm Here?
EXTD=
EXTT0=
EXTT1=
EXTT2=
EXTT3=
EXTT4=
EXTT5=
EXTT6=
EXTT7=
EXTT8=
EXTT9=
EXTT10=
EXTT11=
EXTT12=
EXTT13=
EXTT14=
EXTT15=
EXTT16=
EXTT17=
EXTT18=
EXTT19=
EXTT20=
EXTT21=
EXTT22=
EXTT23=
EXTT24=
EXTT25=
EXTT26=
EXTT27=
EXTT28=
EXTT29=
PLAYORDER=
